<svg xmlns="http://www.w3.org/2000/svg" xmlns:xlink="http://www.w3.org/1999/xlink" contentStyleType="text/css" height="711px" preserveAspectRatio="none" style="width:1877px;height:711px;background:#FFFFFF;" version="1.1" viewBox="0 0 1877 711" width="1877px" zoomAndPan="magnify"><defs/><g><!--cluster AUTO--><g id="cluster_AUTO"><path d="M37.39,66.71 L1034.39,66.71 A12.5,12.5 0 0 1 1046.89,79.21 L1046.89,88.0069 L24.89,88.0069 L24.89,79.21 A12.5,12.5 0 0 1 37.39,66.71 " fill="#F1F1F1" style="stroke:#F1F1F1;stroke-width:1.0;"/><rect fill="none" height="331.74" rx="12.5" ry="12.5" style="stroke:#181818;stroke-width:0.5;" width="1022" x="24.89" y="66.71"/><line style="stroke:#181818;stroke-width:0.5;" x1="24.89" x2="1046.89" y1="88.0069" y2="88.0069"/><text fill="#000000" font-family="sans-serif" font-size="14" lengthAdjust="spacing" textLength="39" x="516.39" y="83.7051">AUTO</text></g><ellipse cx="993.89" cy="134.71" fill="#222222" rx="10" ry="10" style="stroke:#222222;stroke-width:1.0;"/><g id="AUTO.Inactivo_Cerrado"><rect fill="#F1F1F1" height="50" rx="12.5" ry="12.5" style="stroke:#181818;stroke-width:0.5;" width="134" x="612.89" y="324.45"/><line style="stroke:#181818;stroke-width:0.5;" x1="612.89" x2="746.89" y1="350.7469" y2="350.7469"/><text fill="#000000" font-family="sans-serif" font-size="14" lengthAdjust="spacing" textLength="114" x="622.89" y="342.4451">Inactivo_Cerrado</text></g><g id="AUTO.Activo_Abierto"><rect fill="#F1F1F1" height="50" rx="12.5" ry="12.5" style="stroke:#181818;stroke-width:0.5;" width="117" x="621.39" y="109.71"/><line style="stroke:#181818;stroke-width:0.5;" x1="621.39" x2="738.39" y1="136.0069" y2="136.0069"/><text fill="#000000" font-family="sans-serif" font-size="14" lengthAdjust="spacing" textLength="97" x="631.39" y="127.7051">Activo_Abierto</text></g><ellipse cx="1762.89" cy="349.45" fill="#222222" rx="10" ry="10" style="stroke:#222222;stroke-width:1.0;"/><path d="M1379.39,524.18 L1600.39,524.18 A12.5,12.5 0 0 1 1612.89,536.68 L1612.89,550.4769 L1366.89,550.4769 L1366.89,536.68 A12.5,12.5 0 0 1 1379.39,524.18 " fill="#F1F1F1" style="stroke:#F1F1F1;stroke-width:1.0;"/><rect fill="none" height="181.5" rx="12.5" ry="12.5" style="stroke:#181818;stroke-width:0.5;" width="246" x="1366.89" y="524.18"/><line style="stroke:#181818;stroke-width:0.5;" x1="1366.89" x2="1612.89" y1="550.4769" y2="550.4769"/><text fill="#000000" font-family="sans-serif" font-size="14" lengthAdjust="spacing" textLength="38" x="1470.89" y="542.1751">STOP</text><ellipse cx="1491.39" cy="571.4769" fill="#222222" rx="10" ry="10" style="stroke:#222222;stroke-width:1.0;"/><g id="STOP.Desconectada"><rect fill="#F1F1F1" height="78.2031" rx="12.5" ry="12.5" style="stroke:#181818;stroke-width:0.5;" width="225" x="1378.89" y="617.4769"/><line style="stroke:#181818;stroke-width:0.5;" x1="1378.89" x2="1603.89" y1="643.7738" y2="643.7738"/><text fill="#000000" font-family="sans-serif" font-size="14" lengthAdjust="spacing" textLength="101" x="1440.89" y="635.472">Desconectada</text><text fill="#000000" font-family="sans-serif" font-size="12" lengthAdjust="spacing" textLength="127" x="1383.89" y="659.9124">state = 0 (Label "X")</text><text fill="#000000" font-family="sans-serif" font-size="12" lengthAdjust="spacing" textLength="190" x="1383.89" y="673.8812">Rele F&#237;sico: APAGADO (setOFF)</text><text fill="#000000" font-family="sans-serif" font-size="12" lengthAdjust="spacing" textLength="205" x="1383.89" y="687.8499">check() -&gt; Eval&#250;a posibles fugas</text></g><!--link *start*STOP to Desconectada--><g id="link_*start*STOP_Desconectada"><path d="M1491.39,581.6869 C1491.39,590.3869 1491.39,598.0469 1491.39,611.2769 " fill="none" id="*start*STOP-to-Desconectada" style="stroke:#181818;stroke-width:1.0;"/><polygon fill="#181818" points="1491.39,617.2769,1495.39,608.2769,1491.39,612.2769,1487.39,608.2769,1491.39,617.2769" style="stroke:#181818;stroke-width:1.0;"/></g><path d="M1417.89,251.71 L1657.89,251.71 A12.5,12.5 0 0 1 1670.39,264.21 L1670.39,278.0069 L1405.39,278.0069 L1405.39,264.21 A12.5,12.5 0 0 1 1417.89,251.71 " fill="#F1F1F1" style="stroke:#F1F1F1;stroke-width:1.0;"/><rect fill="none" height="195.4687" rx="12.5" ry="12.5" style="stroke:#181818;stroke-width:0.5;" width="265" x="1405.39" y="251.71"/><line style="stroke:#181818;stroke-width:0.5;" x1="1405.39" x2="1670.39" y1="278.0069" y2="278.0069"/><text fill="#000000" font-family="sans-serif" font-size="14" lengthAdjust="spacing" textLength="57" x="1509.39" y="269.7051">MANUAL</text><ellipse cx="1539.39" cy="299.0069" fill="#222222" rx="10" ry="10" style="stroke:#222222;stroke-width:1.0;"/><g id="MANUAL.Forzado_Abierto"><rect fill="#F1F1F1" height="92.1719" rx="12.5" ry="12.5" style="stroke:#181818;stroke-width:0.5;" width="244" x="1417.39" y="345.0069"/><line style="stroke:#181818;stroke-width:0.5;" x1="1417.39" x2="1661.39" y1="371.3037" y2="371.3037"/><text fill="#000000" font-family="sans-serif" font-size="14" lengthAdjust="spacing" textLength="112" x="1483.39" y="363.002">Forzado_Abierto</text><text fill="#000000" font-family="sans-serif" font-size="12" lengthAdjust="spacing" textLength="130" x="1422.39" y="387.4424">state = 2 (Label "M")</text><text fill="#000000" font-family="sans-serif" font-size="12" lengthAdjust="spacing" textLength="198" x="1422.39" y="401.4112">Rele F&#237;sico: ENCENDIDO (setON)</text><text fill="#000000" font-family="sans-serif" font-size="12" lengthAdjust="spacing" textLength="212" x="1422.39" y="415.3799">Registra _startTime y _startPulses</text><text fill="#000000" font-family="sans-serif" font-size="12" lengthAdjust="spacing" textLength="224" x="1422.39" y="429.3487">check() -&gt; Pendiente l&#243;gica de flujo</text></g><!--link *start*MANUAL to Forzado_Abierto--><g id="link_*start*MANUAL_Forzado_Abierto"><path d="M1539.39,309.3069 C1539.39,317.8469 1539.39,325.1769 1539.39,338.5569 " fill="none" id="*start*MANUAL-to-Forzado_Abierto" style="stroke:#181818;stroke-width:1.0;"/><polygon fill="#181818" points="1539.39,344.5569,1543.39,335.5569,1539.39,339.5569,1535.39,335.5569,1539.39,344.5569" style="stroke:#181818;stroke-width:1.0;"/></g><g id="elem_GMN23"><path d="M1074.39,122.14 L1074.39,147.2728 L1359.39,147.2728 L1359.39,132.14 L1349.39,122.14 L1074.39,122.14 " fill="#FAFAFA" style="stroke:#181818;stroke-width:0.5;"/><path d="M1349.39,122.14 L1349.39,132.14 L1359.39,132.14 L1349.39,122.14 " fill="#FAFAFA" style="stroke:#181818;stroke-width:1.0;"/><text fill="#000000" font-family="sans-serif" font-size="13" lengthAdjust="spacing" textLength="264" x="1080.39" y="139.2069">L&#237;mite ajustado = Duraci&#243;n * 60s * factor</text></g><!--link *start* to STOP--><g id="link_*start*_STOP"><path d="M1762.86,359.66 C1762.29,384.29 1757.6,452.61 1723.89,494.18 C1695.29,529.45 1659.0213,552.8834 1618.7013,571.4234 " fill="none" id="*start*-to-STOP" style="stroke:#181818;stroke-width:1.0;"/><polygon fill="#181818" points="1613.25,573.93,1623.0981,573.8043,1617.7928,571.8411,1619.7559,566.5358,1613.25,573.93" style="stroke:#181818;stroke-width:1.0;"/><text fill="#000000" font-family="sans-serif" font-size="13" lengthAdjust="spacing" textLength="133" x="1736.11" y="490.2469">Constructor (setOFF)</text></g><!--link *start*AUTO to Inactivo_Cerrado--><g id="link_*start*AUTO_Inactivo_Cerrado"><path d="M995.84,144.8 C998.93,161.75 1002.98,198.54 985.89,221.71 C929.66,297.95 824.9859,327.549 753.2959,339.679 " fill="none" id="*start*AUTO-to-Inactivo_Cerrado" style="stroke:#181818;stroke-width:1.0;"/><polygon fill="#181818" points="747.38,340.68,756.9212,343.1225,752.3099,339.8459,755.5866,335.2346,747.38,340.68" style="stroke:#181818;stroke-width:1.0;"/></g><!--link Inactivo_Cerrado to Activo_Abierto--><g id="link_Inactivo_Cerrado_Activo_Abierto"><path d="M722.03,324.04 C768.99,293.61 834.31,239.52 801.89,189.71 C787.74,167.97 768.3207,156.7915 744.5307,148.9815 " fill="none" id="Inactivo_Cerrado-to-Activo_Abierto" style="stroke:#181818;stroke-width:1.0;"/><polygon fill="#181818" points="738.83,147.11,746.1334,153.7176,743.5806,148.6696,748.6286,146.1168,738.83,147.11" style="stroke:#181818;stroke-width:1.0;"/><text fill="#000000" font-family="sans-serif" font-size="13" lengthAdjust="spacing" textLength="165" x="811.57" y="202.7769">check() / Programa Activo</text><text fill="#000000" font-family="sans-serif" font-size="13" lengthAdjust="spacing" textLength="165" x="811.57" y="217.9097">[Minuto == 0] -&gt; setON()</text></g><!--link Activo_Abierto to Inactivo_Cerrado--><g id="link_Activo_Abierto_Inactivo_Cerrado"><path d="M621.03,136.61 C477.18,139.41 116.88,150.33 80.89,189.71 C6,271.66 435.1608,324.0324 606.6808,341.4924 " fill="none" id="Activo_Abierto-to-Inactivo_Cerrado" style="stroke:#181818;stroke-width:1.0;"/><polygon fill="#181818" points="612.65,342.1,604.1014,337.2091,607.6757,341.5936,603.2912,345.168,612.65,342.1" style="stroke:#181818;stroke-width:1.0;"/><text fill="#000000" font-family="sans-serif" font-size="13" lengthAdjust="spacing" textLength="393" x="81.89" y="210.2769">check() / Tiempo transcurrido &gt;= L&#237;mite ajustado -&gt; setOFF()</text></g><!--link Activo_Abierto to Inactivo_Cerrado--><g id="link_Activo_Abierto_Inactivo_Cerrado"><path d="M621.18,137.83 C583.33,142.62 536.7,155.67 511.89,189.71 C472.36,243.94 550.7391,292.5626 613.6091,321.4826 " fill="none" id="Activo_Abierto-to-Inactivo_Cerrado-1" style="stroke:#181818;stroke-width:1.0;"/><polygon fill="#181818" points="619.06,323.99,612.5552,316.5949,614.5175,321.9005,609.212,323.8628,619.06,323.99" style="stroke:#181818;stroke-width:1.0;"/><text fill="#000000" font-family="sans-serif" font-size="13" lengthAdjust="spacing" textLength="280" x="512.89" y="210.2769">check() / Fin de ventana horaria -&gt; setOFF()</text></g><!--link STOP to AUTO--><g id="link_STOP_AUTO"><path d="M1366.54,594.61 C1276.53,573.85 1158.99,531.65 1091.89,447.18 C1070.395,420.1225 1057.8276,393.3137 1048.747,359.5331 " fill="none" id="STOP-to-AUTO" style="stroke:#181818;stroke-width:1.0;"/><polygon fill="#181818" points="1047.1894,353.7387,1045.6629,363.4686,1048.4874,358.5673,1053.3886,361.3918,1047.1894,353.7387" style="stroke:#181818;stroke-width:1.0;"/><text fill="#000000" font-family="sans-serif" font-size="13" lengthAdjust="spacing" textLength="294" x="1092.89" y="354.0169">changeState() / Inicialmente Cerrada (setOFF)</text></g><!--link AUTO to MANUAL--><g id="link_AUTO_MANUAL"><path d="M1046.9002,149.5301 C1046.9297,149.5705 1046.9594,149.6109 1046.9891,149.6513 C1047.108,149.8128 1047.228,149.9744 1047.3491,150.1358 C1047.5914,150.4587 1047.8383,150.7812 1048.0897,151.1025 C1048.5924,151.7453 1049.113,152.3836 1049.6509,153.0119 C1051.8025,155.525 1054.23,157.8775 1056.89,159.71 C1179.11,243.9 1241.87,192.36 1377.89,251.71 C1386.96,255.67 1390.8059,257.3323 1399.9359,261.9923 " fill="none" id="AUTO-to-MANUAL" style="stroke:#181818;stroke-width:1.0;"/><polygon fill="#181818" points="1405.28,264.72,1399.0822,257.0657,1400.8266,262.4469,1395.4453,264.1912,1405.28,264.72" style="stroke:#181818;stroke-width:1.0;"/><text fill="#000000" font-family="sans-serif" font-size="13" lengthAdjust="spacing" textLength="219" x="1272.67" y="202.7769">changeState() / Abre Rele (setON)</text><text fill="#000000" font-family="sans-serif" font-size="13" lengthAdjust="spacing" textLength="218" x="1273.17" y="217.9097">[Registra datos de inicio para Log]</text></g><!--link MANUAL to STOP--><g id="link_MANUAL_STOP"><path d="M1494.53,447.56 C1491.43,457.42 1488.78,467.4 1486.89,477.18 C1484,492.1 1482.8399,502.1108 1482.5799,517.7308 " fill="none" id="MANUAL-to-STOP" style="stroke:#181818;stroke-width:1.0;"/><polygon fill="#181818" points="1482.48,523.73,1486.6292,514.7978,1482.5632,518.7307,1478.6303,514.6647,1482.48,523.73" style="stroke:#181818;stroke-width:1.0;"/><text fill="#000000" font-family="sans-serif" font-size="13" lengthAdjust="spacing" textLength="231" x="1487.89" y="490.2469">changeState() / Cierra Rele (setOFF)</text></g><!--link Activo_Abierto to GMN23--><g id="link_Activo_Abierto_GMN23"><path d="M720.51,109.23 C786.69,70.93 922.01,6 1037.39,35.71 C1102.87,52.57 1170.03,98.94 1200.31,121.73 " fill="none" id="Activo_Abierto-GMN23" style="stroke:#181818;stroke-width:1.0;stroke-dasharray:7.0,7.0;"/></g><!--SRC=[dLHDJo914BtthwXu0XDS96fS4ipE0cDqXuyiO3PnZIbccg5rw2RzWN4t-vCyUTihVsohPm0HzR8S27JLU_NgpUinzqBEKUCCPaggUAhLZ8FLZZEpgPWf9kf1o1Gcc1dEsFN-3LGgPp0OzlfGXwQIXY2nLHfAXjjU69OPCnOjBrf-Cw3F6jNY9bQInnOJp0lR1qHN01jGXLA4Ovx1te-zydkDttd68Lm-6H6hEWJzu3nezLuKl8E8fpo-BvM1LBGNc2t_8ioL4UEC6vYu50txinOUZ8Qz7U4N4cCh5kgsoRKcI_BYxc7U6HH7mLXmRTNMu4_GroebKt7LyrDUTuHqrDIWZM-yCg-_Mohqxn2zf-8L-r3msLpH0qHfOgUreFfP0wBbqqpGKdZdQ3iliXWJXlyv9nGI4WuBBYrAXAdIg0M-ejqusGcweo3QyJ9K-XUHhYVcjPsphIZKDb7ehABmjlTr6jhTPhlRkbZdeVinAXKKNeHRcgNjK53y7rT_-exIRZu0RaMfpsKYo0aEsV8v5J5wQoQPkrFUXFm6vA7mYV90b2aV-CroAo-aY0LcivoWy1fVGfo3F7hbubjyCDQyM7wrAKLgirM2LXalH_Wf2lo5XaYbDsp5jtMDTucRmelPeiwljLGaKujqQa5DTdAJM_KcQmreEOsnM3vBs8UJgg7l2Vgt1IFZm1EoB_JBpHZhPoZjg1DHihGHIiBXGQrQEpeuBWsSX0u-Gkq4gf_hXyVrurCO3PlWosLMEkz7O9JJCOV4hox6pXA-p2vnGJiuQUd9rg4tv_AozMrz06sv45f9RpwxlEgyD9mSLRuA2mEkIGbSTLYBJz1bbX2nIkXTMAVfOUMKHMIQmvIukMHDHRpwaMg3Vm00]--></g></svg>